<svg xmlns="http://www.w3.org/2000/svg" viewBox="2.07 8.07 328.59 91.87" role="img" aria-label="Ontology Atlas — Understand your codebase."><g transform="translate(-16.95 -4.79) scale(0.229665)"><g fill="none" stroke="#0A0B14" stroke-linejoin="round" stroke-linecap="round"><path d="M 256 56 L 429.2 156 L 429.2 356 L 256 456 L 82.8 356 L 82.8 156 Z" stroke-width="18"/><path d="M 256 100 L 391.1 178 L 391.1 334 L 256 412 L 120.9 334 L 120.9 178 Z" stroke-width="6" stroke-dasharray="0.1 16" stroke-opacity="0.62"/><path d="M 256 144 L 353 200 L 353 312 L 256 368 L 159 312 L 159 200 Z" stroke-width="13"/><path d="M 256 208 L 297.6 232 L 297.6 280 L 256 304 L 214.4 280 L 214.4 232 Z" stroke-width="19"/><line x1="256" y1="56" x2="256" y2="144" stroke-width="13"/><line x1="429.2" y1="356" x2="353" y2="312" stroke-width="13"/><line x1="82.8" y1="356" x2="159" y2="312" stroke-width="13"/></g><g fill="#0A0B14"><circle cx="256" cy="144" r="23"/><circle cx="353" cy="312" r="23"/><circle cx="159" cy="312" r="23"/></g></g><text x="107.7" y="56.2" fill="#0A0B14" font-family="Pretendard Variable, Pretendard, -apple-system, BlinkMacSystemFont, 'Segoe UI', sans-serif" font-size="31.7" font-weight="600" letter-spacing="-0.02em">Ontology Atlas</text><text x="107.7" y="86.7" fill="#0A0B14" font-family="Pretendard Variable, Pretendard, -apple-system, BlinkMacSystemFont, 'Segoe UI', sans-serif" font-size="17.8" font-weight="450">Understand your codebase.</text></svg>
